<svg width="16" height="17" viewBox="0 0 16 17" fill="none" xmlns="http://www.w3.org/2000/svg">
<path fill-rule="evenodd" clip-rule="evenodd" d="M13.5103 10.3258C13.5103 13.2753 11.4579 15.6018 8.78284 15.6831L8.67424 15.6612L8.59461 15.6331C8.38104 15.5374 8.229 15.3226 8.229 15.073C8.229 14.9447 8.26882 14.8255 8.3376 14.7271C8.39552 14.6389 8.47877 14.5673 8.57651 14.5204C8.64166 14.4902 8.71044 14.4703 8.78284 14.463C10.2633 14.3577 11.1882 13.1537 11.1882 11.2567C11.1882 9.3409 10.1004 8.11523 8.54393 8.11523C8.27244 8.11523 8.01182 8.1599 7.76929 8.24085C7.47609 8.34024 7.20822 8.5483 6.99103 8.75368C6.84624 8.8911 6.72317 9.02732 6.62905 9.12896L6.53494 9.2225L5.4942 10.2623C4.91113 10.8449 3.91058 10.4344 3.91058 9.61272V4.65207C3.91058 4.22839 3.78027 3.73102 3.63185 3.52838C3.50516 3.38101 3.42914 3.34416 2.91151 3.19682C2.63279 3.12312 2.48438 2.97575 2.48438 2.7547C2.48438 2.62574 2.52057 2.53366 2.61469 2.45996C2.68708 2.4047 2.745 2.38629 2.7812 2.36785C2.98391 2.29418 3.41104 2.20207 3.87438 2.12839C4.44993 1.99943 4.76485 1.94417 4.89516 1.92576L5.59741 1.72313C5.65532 1.70469 5.74582 1.68628 5.87613 1.68628C6.04626 1.68628 6.16572 1.71082 6.24897 1.795C6.35395 1.90387 6.39376 2.11248 6.39376 2.49681V7.28626L6.41186 7.65471L6.72679 7.34155C7.58106 6.49417 8.58013 6.0705 9.74932 6.0705C11.9538 6.0705 13.5103 7.82049 13.5103 10.3258Z" fill="#080808"/>
<path d="M9.46299 15.073C9.46299 15.4117 9.18675 15.6863 8.846 15.6863C8.82467 15.6863 8.8036 15.6852 8.78284 15.6831C8.47175 15.6517 8.229 15.3905 8.229 15.073C8.22901 14.7555 8.47176 14.4944 8.78284 14.463C8.8036 14.4609 8.82467 14.4598 8.846 14.4598C9.18675 14.4598 9.46299 14.7343 9.46299 15.073Z" fill="#080808"/>
</svg>
