<svg width="17" height="17" viewBox="0 0 17 17" fill="none" xmlns="http://www.w3.org/2000/svg">
<path fill-rule="evenodd" clip-rule="evenodd" d="M13.69 10.3258C13.69 13.2753 11.6376 15.6018 8.96252 15.6831L8.85393 15.6612L8.77429 15.6331C8.56072 15.5374 8.40869 15.3226 8.40869 15.073C8.40869 14.9447 8.44851 14.8255 8.51729 14.7271C8.5752 14.6389 8.65846 14.5673 8.75619 14.5204C8.82135 14.4902 8.89013 14.4703 8.96252 14.463C10.443 14.3577 11.3679 13.1537 11.3679 11.2567C11.3679 9.3409 10.2801 8.11523 8.72362 8.11523C8.45213 8.11523 8.1915 8.1599 7.94898 8.24085C7.65577 8.34024 7.38791 8.5483 7.17072 8.75368C7.02593 8.8911 6.90285 9.02732 6.80874 9.12896L6.71462 9.2225L5.67389 10.2623C5.09082 10.8449 4.09027 10.4344 4.09027 9.61272V4.65207C4.09027 4.22839 3.95995 3.73102 3.81154 3.52838C3.68485 3.38101 3.60883 3.34416 3.0912 3.19682C2.81247 3.12312 2.66406 2.97575 2.66406 2.7547C2.66406 2.62574 2.70026 2.53366 2.79438 2.45996C2.86677 2.4047 2.92469 2.38629 2.96089 2.36785C3.1636 2.29418 3.59073 2.20207 4.05407 2.12839C4.62962 1.99943 4.94454 1.94417 5.07485 1.92576L5.77709 1.72313C5.83501 1.70469 5.92551 1.68628 6.05582 1.68628C6.22595 1.68628 6.3454 1.71082 6.42866 1.795C6.53363 1.90387 6.57345 2.11248 6.57345 2.49681V7.28626L6.59155 7.65471L6.90647 7.34155C7.76075 6.49417 8.75981 6.0705 9.92901 6.0705C12.1335 6.0705 13.69 7.82049 13.69 10.3258Z" fill="white"/>
<path d="M9.64268 15.073C9.64268 15.4117 9.36644 15.6863 9.02569 15.6863C9.00436 15.6863 8.98329 15.6852 8.96252 15.6831C8.65144 15.6517 8.40869 15.3905 8.40869 15.073C8.4087 14.7555 8.65144 14.4944 8.96252 14.463C8.98329 14.4609 9.00436 14.4598 9.02569 14.4598C9.36644 14.4598 9.64268 14.7343 9.64268 15.073Z" fill="white"/>
</svg>
