<svg width="16" height="16" viewBox="0 0 16 16" fill="none" xmlns="http://www.w3.org/2000/svg">
<path d="M1.54342 7.49532C1.5188 7.39702 1.5169 7.2944 1.53789 7.19526C1.55888 7.09612 1.60219 7.00307 1.66453 6.92318C1.72687 6.84329 1.80661 6.77866 1.89768 6.73421C1.98875 6.68976 2.08875 6.66666 2.19009 6.66666H13.8168C13.918 6.66668 14.0179 6.68978 14.109 6.73419C14.2 6.77861 14.2797 6.84317 14.342 6.92298C14.4043 7.00279 14.4476 7.09575 14.4687 7.1948C14.4897 7.29386 14.4879 7.3964 14.4634 7.49466L13.2561 12.3233C13.184 12.6118 13.0175 12.8679 12.7832 13.0509C12.5489 13.2339 12.2601 13.3333 11.9628 13.3333H4.04409C3.74676 13.3333 3.45798 13.2339 3.22364 13.0509C2.9893 12.8679 2.82286 12.6118 2.75075 12.3233L1.54342 7.49532Z" stroke="#080808" stroke-width="1.33333" stroke-linejoin="round"/>
<path d="M6 9.33332V10.6667M10 9.33332V10.6667M4 6.66666L6.66667 2.66666M12 6.66666L9.33333 2.66666" stroke="#080808" stroke-width="1.33333" stroke-linecap="round"/>
</svg>
