<svg width="92" height="22" viewBox="0 0 92 22" fill="none" xmlns="http://www.w3.org/2000/svg">
<path d="M89.3671 9.64141L89.2965 9.77709L89.2639 9.84765C89.2151 9.96163 89.15 10.0159 89.074 10.0159C89.0089 10.0159 88.9492 9.97791 88.9112 9.92906C88.8949 9.91278 88.884 9.89107 88.8623 9.85308L88.8189 9.76081C88.8135 9.74453 88.7972 9.71739 88.7701 9.64684C88.7538 9.59799 88.7321 9.55457 88.7104 9.50572L87.7335 7.45959C87.7009 7.39989 87.6846 7.36732 87.6792 7.36732C87.6629 7.36732 87.6521 7.41074 87.6466 7.45959L87.5164 9.1041V9.23435C87.5164 9.47859 87.5598 9.53829 87.7986 9.60884C87.8909 9.63598 87.9397 9.69026 87.9397 9.77167C87.9397 9.8965 87.8366 9.96163 87.6629 9.96163H87.6086C87.4295 9.96163 87.3156 9.95077 87.2559 9.95077C87.2179 9.95077 87.1039 9.96163 86.9248 9.96163H86.8651C86.686 9.96163 86.5938 9.90735 86.5938 9.80423C86.5938 9.76624 86.5992 9.72825 86.6155 9.70111C86.6372 9.67397 86.6589 9.65769 86.6752 9.64684C86.6806 9.64141 86.7077 9.63055 86.762 9.61427L86.8651 9.57628C86.9031 9.55457 86.9302 9.53286 86.9465 9.51658C86.9954 9.46773 87.0116 9.38089 87.0334 9.1258L87.2233 6.88428C87.2287 6.84087 87.2287 6.80287 87.2287 6.75403C87.2287 6.48808 87.1853 6.43381 86.9628 6.35783C86.838 6.31983 86.8 6.28184 86.8 6.195C86.8 6.0756 86.8814 6.0159 87.0442 6.0159C87.0822 6.0159 87.1093 6.0159 87.1256 6.02133C87.321 6.03761 87.4512 6.04304 87.5109 6.03761L87.8529 6.02133H87.8963C87.9668 6.02133 88.0157 6.02675 88.0428 6.03761C88.0917 6.04846 88.1351 6.09731 88.1731 6.18958L88.2491 6.37954L89.226 8.50708C89.2639 8.57764 89.2802 8.61563 89.2857 8.61563C89.3128 8.57221 89.3019 8.57221 89.3399 8.50708L90.382 6.35783L90.4525 6.20043C90.5122 6.06475 90.599 6.02133 90.7727 6.02133H90.8813L91.234 6.03218L91.5705 6.0159H91.5977C91.755 6.0159 91.831 6.0756 91.831 6.18958C91.831 6.27642 91.7822 6.33069 91.6791 6.35783C91.5271 6.39582 91.5108 6.40667 91.462 6.46637C91.4186 6.52608 91.4023 6.56407 91.4023 6.6889C91.4023 6.73774 91.4077 6.78659 91.4131 6.83544L91.5597 9.1258C91.5759 9.45688 91.6302 9.51115 91.869 9.59799C91.9559 9.62513 91.9993 9.6794 91.9993 9.76081C91.9993 9.91278 91.9233 9.96705 91.7333 9.96705C91.6953 9.96705 91.6628 9.96705 91.6356 9.96163C91.4891 9.9562 91.2557 9.95077 91.0387 9.95077C90.8216 9.95077 90.6479 9.9562 90.5176 9.96163C90.4796 9.96705 90.4417 9.96705 90.4037 9.96705C90.2463 9.96705 90.1649 9.90735 90.1649 9.78795C90.1649 9.70654 90.2137 9.65226 90.306 9.61427C90.3982 9.57628 90.4959 9.52743 90.5339 9.48944C90.5936 9.42974 90.6045 9.37004 90.6045 9.21807C90.6045 9.17465 90.6045 9.13666 90.599 9.09324L90.4905 7.45959C90.4851 7.39989 90.4742 7.3619 90.4579 7.3619C90.4525 7.3619 90.4362 7.39446 90.4091 7.45416L89.4322 9.50572L89.3671 9.64141Z" fill="#080808"/>
<path d="M84.709 6.03761L86.272 6.02133L86.386 6.04304C86.4403 6.0539 86.4783 6.08646 86.5054 6.14073C86.5434 6.20586 86.5434 6.26014 86.5651 6.49352C86.5705 6.57493 86.5868 6.69976 86.6139 6.87344C86.6411 7.0254 86.6574 7.1231 86.6574 7.16651C86.6574 7.24793 86.5977 7.30763 86.5163 7.30763C86.4566 7.30763 86.4077 7.26421 86.3697 7.1828C86.2015 6.86258 86.1038 6.73232 85.9573 6.61835C85.8053 6.50437 85.5936 6.44467 85.382 6.44467C85.2137 6.44467 85.2083 6.4501 85.2083 6.59664V9.12581C85.2083 9.39175 85.2626 9.51658 85.3928 9.57628L85.5176 9.63056C85.5936 9.6577 85.6316 9.70654 85.6316 9.78795C85.6316 9.81509 85.6262 9.84223 85.6153 9.86394C85.5882 9.92364 85.5719 9.92364 85.42 9.93992L85.2354 9.9562L85.0618 9.96163L84.709 9.95078L84.2911 9.96163H84.0794C83.9003 9.96163 83.8243 9.91821 83.8243 9.79338C83.8243 9.72282 83.8623 9.66855 83.9329 9.63599L84.0686 9.58171C84.1988 9.52201 84.2477 9.39718 84.2477 9.12038V6.48809C84.2205 6.45552 84.1717 6.43924 84.0903 6.43924C83.6398 6.43924 83.3359 6.6889 83.1242 7.19365C83.0862 7.28592 83.0374 7.32934 82.9777 7.32934C82.8746 7.32934 82.8203 7.26964 82.8203 7.15566C82.8203 7.10681 82.8366 6.86258 82.8746 6.68348C82.8909 6.55865 82.8963 6.47181 82.8963 6.40668C82.9126 6.12988 82.9669 6.05932 83.1622 6.02133L84.709 6.03761Z" fill="#080808"/>
<path d="M76.0567 12.5134L77.5734 8.88243C77.723 8.56393 77.7657 8.18173 77.7657 7.90569C77.7657 7.41732 77.6589 7.33238 77.0821 7.09881C76.8044 6.99264 76.6762 6.84401 76.6762 6.65291C76.6762 6.22824 76.9539 6.0159 77.5307 6.0159H77.9153C78.2571 6.0159 78.663 6.05837 78.9834 6.05837C79.2611 6.05837 79.5175 6.05837 79.7525 6.03713C79.902 6.0159 79.9661 6.0159 80.1157 6.0159C80.5429 6.0159 80.8206 6.207 80.8206 6.54674C80.8206 6.78031 80.6711 6.97141 80.372 7.16251C80.0943 7.33238 80.0088 7.39608 79.8593 7.58719C79.5175 8.03309 79.0902 8.96737 78.0648 11.4092C76.2703 15.6772 74.5826 18.7985 73.3649 20.1575C72.5745 21.0068 71.1432 21.6863 70.075 21.6863C69.1564 21.6863 68.8359 21.3041 68.8359 20.2636C68.8359 19.5205 69.0496 19.1595 69.4555 19.1595C69.605 19.1595 69.7118 19.1595 69.8614 19.1807C70.31 19.3294 70.6304 19.3506 70.8013 19.3506C71.3781 19.3506 72.4249 18.7773 73.1726 17.9916C73.7067 17.4608 74.0485 16.845 74.0485 16.4416C74.0485 16.2505 74.0485 16.0169 73.899 15.7409L70.6518 8.71257C70.4168 8.26666 70.2032 7.77829 70.0536 7.60842C69.9468 7.43855 69.7759 7.31115 69.5623 7.20498C69.135 7.01388 69.0709 6.95018 69.0709 6.71661C69.0709 6.29194 69.37 6.0796 69.9468 6.0796C70.0964 6.0796 70.2459 6.0796 70.4382 6.10083C70.9295 6.12207 71.3995 6.1433 71.8481 6.1433C72.2754 6.1433 72.8522 6.12207 73.5786 6.0796C73.6426 6.05837 73.7495 6.05837 73.899 6.05837C74.4972 6.05837 74.6894 6.16453 74.6894 6.56797C74.6894 6.80154 74.5613 6.97141 74.3049 7.12005C73.7708 7.43855 73.664 7.50225 73.664 7.90569C73.664 8.13926 73.7495 8.43653 73.899 8.75503L75.4799 12.4921C75.6294 12.8531 75.7149 13.0867 75.7789 13.0867C75.843 13.0867 75.9071 12.8531 76.0567 12.5134Z" fill="#080808"/>
<path d="M68.3787 7.09877L68.3146 8.41525V12.9805C68.3146 14.573 68.4428 14.849 69.4042 15.0826C69.8101 15.1888 69.9382 15.3374 69.9382 15.6771C69.9382 15.8258 69.8741 15.9319 69.7673 16.0169C69.5964 16.1655 69.4896 16.1867 68.8914 16.2504C68.3146 16.3141 67.4601 16.5265 66.9474 16.7813C66.4347 17.0361 66.392 17.0573 66.1356 17.0573C65.6443 17.0573 65.5374 16.8662 65.5374 16.1018C65.5374 15.9107 65.5588 15.6134 65.5802 15.3374C65.5802 15.1675 65.6015 14.9764 65.6015 14.8278C65.6015 14.7641 65.5802 14.7429 65.5588 14.7429L65.2597 15.1675C64.6829 16.0806 63.0379 16.8875 61.8416 16.8875C59.7694 16.8875 58.6158 15.6771 58.6158 13.4688V9.28583C58.6158 8.67005 58.5944 8.54265 58.4022 8.30908C58.2526 8.07551 58.1244 8.05428 57.6331 7.94811C57.2058 7.86317 56.9922 7.65084 56.9922 7.3111C56.9922 7.12 57.099 6.90766 57.2058 6.82273C57.3554 6.71656 57.5049 6.69533 58.1031 6.63163C59.043 6.56793 59.5344 6.44052 60.2821 6.10079C60.6026 5.95215 60.8375 5.86722 60.9871 5.86722C61.3716 5.86722 61.5639 6.07955 61.5639 6.48299L61.5425 8.20291V12.1311C61.5425 13.936 61.9912 14.5942 63.2089 14.5942C64.5547 14.5942 65.4093 13.5325 65.4093 11.9188V9.17966C65.4093 8.22415 65.2597 7.99058 64.512 7.84194C64.0207 7.73577 63.8711 7.58714 63.8711 7.2474C63.8711 7.09877 63.9138 6.97136 63.9779 6.90766C64.0847 6.71656 64.2557 6.65286 64.9179 6.58916C65.7511 6.50422 66.691 6.31312 67.1397 6.07955C67.4815 5.90968 67.5669 5.86722 67.7165 5.86722C68.2505 5.86722 68.3787 6.05832 68.3787 6.75903V7.09877Z" fill="#080808"/>
<path d="M48.4217 7.14144L48.443 7.56612L48.8062 7.20514C49.7889 6.2284 50.9425 5.74003 52.2884 5.74003C54.8306 5.74003 56.6251 7.75722 56.6251 10.645C56.6251 14.1061 54.1684 16.824 51.0066 16.824C49.6394 16.824 48.1653 16.3356 47.4817 15.7198C47.3322 15.5712 47.2467 15.5075 47.1613 15.5075C47.1399 15.5075 47.0758 15.5924 46.969 15.7835C46.5631 16.5267 46.0717 17.1 45.8154 17.1C45.4308 17.1 45.2386 16.9301 45.2386 16.5904C45.2386 16.5055 45.2599 16.4418 45.2599 16.3356L45.3668 15.5499L45.559 13.9787V4.10504C45.559 3.61667 45.4095 3.04336 45.2386 2.80979C45.089 2.63992 45.0036 2.59745 44.4054 2.42759C44.085 2.34265 43.9141 2.17278 43.9141 1.91798C43.9141 1.76935 43.9568 1.66318 44.0636 1.57824C44.1491 1.51454 44.2131 1.49331 44.2559 1.47207C44.4909 1.38714 44.9822 1.28097 45.5163 1.19604C46.1786 1.0474 46.5417 0.983702 46.6913 0.962469L47.5031 0.728899C47.5672 0.707665 47.674 0.686432 47.8235 0.686432C48.2721 0.686432 48.4217 0.835066 48.4217 1.62071V7.14144ZM48.7208 14.2759C49.0839 14.9766 49.8957 15.4225 50.9212 15.4225C52.7798 15.4225 53.8906 14.0424 53.8906 11.7491C53.8906 9.54084 52.6943 8.09696 50.8998 8.09696C49.8957 8.09696 48.9985 8.6278 48.6567 9.37097C48.4644 9.79564 48.4217 10.008 48.4217 10.8361V11.643C48.4217 12.3861 48.4217 12.8533 48.443 13.0019C48.443 13.4903 48.5285 13.915 48.7208 14.2759Z" fill="#080808"/>
<path d="M40.4443 16.3352L39.8674 15.4222L39.2266 15.953C38.6284 16.4414 37.3466 16.8448 36.2144 16.8448C34.3771 16.8448 33.0312 15.6345 33.0312 13.9995C33.0312 12.5769 33.6935 11.7488 35.2317 11.2604L37.3252 10.6234C38.2866 10.3049 38.8847 10.1562 39.1411 10.0925C39.547 10.0288 39.5684 10.0076 39.5684 9.64664V9.47677L39.5043 8.54249C39.4402 7.67191 38.8847 7.11984 38.0302 7.11984C37.1116 7.11984 36.193 7.96918 36.193 8.88223C36.193 9.28567 36.1716 9.498 36.1716 9.5617C36.1075 9.83774 35.8939 9.98637 35.5307 9.98637C34.4199 9.98637 33.4371 9.3706 33.4371 8.66989C33.4371 7.14107 35.8725 5.73965 38.5857 5.73965C41.5765 5.73965 42.5165 6.56776 42.5165 9.28566V13.7235C42.5165 14.5091 42.6446 14.8064 43.0505 14.8064C43.136 14.8064 43.2001 14.7852 43.2215 14.7639L43.5846 14.5941C43.606 14.5728 43.6487 14.5728 43.7128 14.5728C43.9478 14.5728 44.1401 14.8489 44.1401 15.2098C44.1401 15.4009 44.0546 15.592 43.9051 15.7407C43.2855 16.3565 42.3456 16.8024 41.5979 16.8024C41.0211 16.8024 40.6365 16.6537 40.4443 16.3352ZM39.5684 12.4282C39.5684 12.2371 39.5897 11.8762 39.5256 11.4303L38.7566 11.7063C37.6457 12.0885 37.4534 12.1097 37.0902 12.3433C36.8339 12.4919 36.6203 12.6406 36.4493 12.8741C36.193 13.1926 36.0648 13.5324 36.0648 13.8934C36.0648 14.679 36.5989 15.1461 37.5389 15.1461C38.137 15.1461 38.7779 14.8064 39.1197 14.318C39.4402 13.8934 39.5684 13.3625 39.5684 12.4282Z" fill="#080808"/>
<path d="M31.1399 7.86357H29.1959C29.0036 7.86357 28.9181 7.86357 28.9181 7.8848C28.8968 7.8848 28.8754 8.03344 28.8754 8.2033V12.8747C28.8754 13.6603 28.8968 13.9151 29.1959 14.2549C29.4309 14.5946 29.794 14.7645 30.2427 14.7645C30.5204 14.7645 30.7981 14.7008 31.0758 14.5521L31.6954 14.2124C31.7381 14.1699 31.8022 14.1487 31.909 14.1487C32.2508 14.1487 32.5499 14.5097 32.5499 14.9131C32.5499 15.1042 32.379 15.359 32.0372 15.6775C31.1185 16.4632 30.0504 16.8666 28.8327 16.8666C26.9314 16.8666 25.97 15.6988 25.97 13.3418V8.43687C25.97 8.2033 25.97 8.09714 25.9487 8.0759H24.8378C24.3251 8.0759 24.1328 7.8848 24.1328 7.46013C24.1328 6.92929 24.3464 6.67448 25.2223 6.16488C25.97 5.76144 26.0555 5.65527 26.3973 5.31553C26.8032 4.95456 26.91 4.74223 27.2305 4.16892C27.6791 3.38328 27.8714 3.21341 28.2986 3.21341C28.6191 3.21341 28.8113 3.34081 28.8754 3.59561L28.8541 4.21139L28.8327 5.65527V6.01624C28.8541 6.03748 28.9395 6.05871 29.0463 6.05871L29.1318 6.03748L31.0117 5.91007H31.3535C31.6954 5.91007 31.8663 6.14364 31.8663 6.63202C31.8663 6.88682 31.8022 7.09916 31.6954 7.33273C31.5672 7.6937 31.3749 7.86357 31.1399 7.86357Z" fill="#080808"/>
<path d="M22.3513 10.5173L17.865 11.6639C17.63 11.7276 17.5018 11.7701 17.5018 11.7701C17.4805 11.7913 17.4591 11.8338 17.4591 11.8763C17.4591 12.1523 17.5873 12.6195 17.8223 13.0441C18.4418 14.2332 19.51 14.9339 20.6849 14.9339C21.4326 14.9339 22.4794 14.6154 22.9708 14.2332C23.3126 13.9784 23.4835 13.8085 23.5476 13.7873C23.6544 13.7448 23.7612 13.7236 23.868 13.7236C24.1458 13.7236 24.3808 13.9359 24.3808 14.1907C24.3808 14.4243 24.2739 14.6579 24.0389 14.9339C23.1203 16.0805 21.3045 16.8662 19.5741 16.8662C16.5832 16.8662 14.3828 14.5729 14.3828 11.4304C14.3828 10.0077 14.8314 8.75494 15.7287 7.67203C16.8396 6.31308 18.1641 5.71854 20.044 5.71854C21.0481 5.71854 21.9454 5.93087 22.5222 6.27061C23.398 6.80145 24.1458 8.0967 24.1458 9.05221C24.1458 9.32825 24.0817 9.56182 23.9749 9.75292C23.7399 10.0927 23.5476 10.2413 22.3513 10.5173ZM17.4164 10.3687C17.5232 10.3687 17.8436 10.305 18.4204 10.1564C19.04 9.98649 19.2109 9.98649 20.4286 9.51935C21.2617 9.20085 21.5608 8.94604 21.5608 8.52137C21.5608 8.30904 21.4754 8.05423 21.2831 7.77819C20.9413 7.28982 20.4286 7.03502 19.9159 7.03502C18.5913 7.03502 17.2882 8.62754 17.2882 10.2413C17.2882 10.3262 17.3309 10.3687 17.4164 10.3687Z" fill="#080808"/>
<path fill-rule="evenodd" clip-rule="evenodd" d="M13.5297 10.645C13.5297 14.0449 11.1639 16.7266 8.08043 16.8203L7.95526 16.795L7.86346 16.7627C7.61729 16.6523 7.44204 16.4048 7.44204 16.1171C7.44204 15.9691 7.48794 15.8318 7.56722 15.7183C7.63398 15.6167 7.72994 15.5341 7.8426 15.4801C7.91771 15.4453 7.99698 15.4223 8.08043 15.4139C9.78698 15.2925 10.8531 13.9047 10.8531 11.7181C10.8531 9.50977 9.59922 8.09697 7.80505 8.09697C7.49211 8.09697 7.19169 8.14845 6.91214 8.24176C6.57417 8.35633 6.2654 8.59615 6.01505 8.8329C5.84815 8.9913 5.70629 9.14831 5.59781 9.26547L5.48932 9.3733L4.28968 10.5719C3.61759 11.2434 2.46427 10.7703 2.46427 9.8231V4.10504C2.46427 3.61668 2.31406 3.04336 2.14299 2.80979C1.99695 2.63992 1.90933 2.59744 1.31267 2.4276C0.991384 2.34265 0.820312 2.17278 0.820312 1.91798C0.820312 1.76933 0.862037 1.66319 0.970522 1.57824C1.05397 1.51454 1.12073 1.49332 1.16246 1.47206C1.39612 1.38714 1.88847 1.28097 2.42255 1.19605C3.08597 1.0474 3.44898 0.983701 3.59919 0.962479L4.40865 0.728908C4.47541 0.707654 4.57972 0.686432 4.72993 0.686432C4.92604 0.686432 5.06373 0.714717 5.15969 0.811755C5.2807 0.937239 5.32659 1.17771 5.32659 1.62072V7.14143L5.34746 7.56613L5.71046 7.20516C6.69517 6.2284 7.84677 5.74004 9.19449 5.74004C11.7355 5.74004 13.5297 7.75722 13.5297 10.645Z" fill="#080808"/>
<path d="M8.86444 16.1171C8.86444 16.5075 8.54602 16.824 8.15324 16.824C8.12866 16.824 8.10437 16.8227 8.08043 16.8203C7.72185 16.7841 7.44204 16.483 7.44204 16.1171C7.44205 15.7511 7.72186 15.4501 8.08043 15.4139C8.10437 15.4114 8.12866 15.4102 8.15324 15.4102C8.54602 15.4102 8.86444 15.7267 8.86444 16.1171Z" fill="#080808"/>
</svg>
