<svg width="175" height="41" viewBox="0 0 175 41" fill="none" xmlns="http://www.w3.org/2000/svg">
<path d="M169.482 17.7435L169.348 18.0019L169.286 18.1363C169.192 18.3534 169.068 18.4568 168.924 18.4568C168.8 18.4568 168.686 18.3844 168.614 18.2914C168.583 18.2604 168.562 18.219 168.521 18.1467L168.438 17.9709C168.428 17.9399 168.396 17.8882 168.345 17.7538C168.314 17.6608 168.272 17.5781 168.231 17.485L166.37 13.5876C166.308 13.4739 166.277 13.4119 166.267 13.4119C166.236 13.4119 166.215 13.4946 166.205 13.5876L165.957 16.72V16.9681C165.957 17.4334 166.039 17.5471 166.494 17.6815C166.67 17.7332 166.763 17.8365 166.763 17.9916C166.763 18.2294 166.567 18.3534 166.236 18.3534H166.133C165.791 18.3534 165.574 18.3328 165.461 18.3328C165.388 18.3328 165.171 18.3534 164.83 18.3534H164.716C164.375 18.3534 164.199 18.2501 164.199 18.0536C164.199 17.9813 164.21 17.9089 164.241 17.8572C164.282 17.8055 164.323 17.7745 164.354 17.7538C164.365 17.7435 164.416 17.7228 164.52 17.6918L164.716 17.6194C164.789 17.5781 164.84 17.5367 164.871 17.5057C164.964 17.4127 164.995 17.2473 165.037 16.7614L165.399 12.4918C165.409 12.4091 165.409 12.3367 165.409 12.2437C165.409 11.7371 165.326 11.6337 164.902 11.489C164.665 11.4166 164.592 11.3443 164.592 11.1789C164.592 10.9514 164.747 10.8377 165.057 10.8377C165.13 10.8377 165.181 10.8377 165.212 10.8481C165.585 10.8791 165.833 10.8894 165.946 10.8791L166.598 10.8481H166.68C166.815 10.8481 166.908 10.8584 166.96 10.8791C167.053 10.8997 167.135 10.9928 167.208 11.1685L167.352 11.5304L169.213 15.5829C169.286 15.7172 169.317 15.7896 169.327 15.7896C169.379 15.7069 169.358 15.7069 169.43 15.5829L171.415 11.489L171.549 11.1892C171.663 10.9308 171.829 10.8481 172.159 10.8481H172.366L173.038 10.8687L173.679 10.8377H173.731C174.031 10.8377 174.175 10.9514 174.175 11.1685C174.175 11.3339 174.082 11.4373 173.886 11.489C173.596 11.5614 173.565 11.582 173.472 11.6958C173.39 11.8095 173.359 11.8819 173.359 12.1196C173.359 12.2127 173.369 12.3057 173.379 12.3988L173.658 16.7614C173.689 17.392 173.793 17.4954 174.248 17.6608C174.413 17.7125 174.496 17.8159 174.496 17.9709C174.496 18.2604 174.351 18.3638 173.989 18.3638C173.917 18.3638 173.855 18.3638 173.803 18.3534C173.524 18.3431 173.079 18.3328 172.666 18.3328C172.252 18.3328 171.922 18.3431 171.674 18.3534C171.601 18.3638 171.529 18.3638 171.456 18.3638C171.157 18.3638 171.002 18.2501 171.002 18.0226C171.002 17.8675 171.095 17.7642 171.27 17.6918C171.446 17.6194 171.632 17.5264 171.705 17.454C171.818 17.3403 171.839 17.2266 171.839 16.9371C171.839 16.8544 171.839 16.7821 171.829 16.6994L171.622 13.5876C171.612 13.4739 171.591 13.4015 171.56 13.4015C171.549 13.4015 171.518 13.4636 171.467 13.5773L169.606 17.485L169.482 17.7435Z" fill="#404040"/>
<path d="M160.609 10.8791L163.587 10.8481L163.804 10.8894C163.907 10.9101 163.979 10.9721 164.031 11.0755C164.103 11.1996 164.103 11.3029 164.145 11.7475C164.155 11.9025 164.186 12.1403 164.238 12.4711C164.29 12.7606 164.321 12.9467 164.321 13.0294C164.321 13.1844 164.207 13.2982 164.052 13.2982C163.938 13.2982 163.845 13.2155 163.773 13.0604C163.452 12.4504 163.266 12.2023 162.987 11.9852C162.698 11.7681 162.294 11.6544 161.891 11.6544C161.571 11.6544 161.56 11.6648 161.56 11.9439V16.7614C161.56 17.268 161.664 17.5057 161.912 17.6194L162.15 17.7228C162.294 17.7745 162.367 17.8676 162.367 18.0226C162.367 18.0743 162.356 18.126 162.336 18.1674C162.284 18.2811 162.253 18.2811 161.964 18.3121L161.612 18.3431L161.281 18.3534L160.609 18.3328L159.813 18.3534H159.41C159.069 18.3534 158.924 18.2707 158.924 18.033C158.924 17.8986 158.997 17.7952 159.131 17.7332L159.39 17.6298C159.638 17.5161 159.731 17.2783 159.731 16.7511V11.7371C159.679 11.6751 159.586 11.6441 159.431 11.6441C158.573 11.6441 157.994 12.1196 157.591 13.0811C157.518 13.2568 157.425 13.3395 157.312 13.3395C157.115 13.3395 157.012 13.2258 157.012 13.0087C157.012 12.9157 157.043 12.4505 157.115 12.1093C157.146 11.8715 157.157 11.7061 157.157 11.5821C157.188 11.0548 157.291 10.9204 157.663 10.8481L160.609 10.8791Z" fill="#404040"/>
<path d="M144.129 23.214L147.018 16.2978C147.303 15.6911 147.384 14.9631 147.384 14.4373C147.384 13.5071 147.181 13.3453 146.082 12.9004C145.553 12.6982 145.309 12.4151 145.309 12.0511C145.309 11.2422 145.838 10.8377 146.936 10.8377H147.669C148.32 10.8377 149.093 10.9186 149.703 10.9186C150.232 10.9186 150.721 10.9186 151.168 10.8782C151.453 10.8377 151.575 10.8377 151.86 10.8377C152.674 10.8377 153.203 11.2017 153.203 11.8488C153.203 12.2937 152.918 12.6577 152.348 13.0218C151.819 13.3453 151.657 13.4667 151.372 13.8307C150.721 14.68 149.907 16.4596 147.954 21.1108C144.536 29.2403 141.321 35.1857 139.001 37.7742C137.496 39.392 134.77 40.6863 132.735 40.6863C130.985 40.6863 130.375 39.9583 130.375 37.9765C130.375 36.5609 130.782 35.8733 131.555 35.8733C131.84 35.8733 132.043 35.8733 132.328 35.9137C133.183 36.1969 133.793 36.2373 134.118 36.2373C135.217 36.2373 137.211 35.1453 138.635 33.6488C139.653 32.6377 140.304 31.4648 140.304 30.6963C140.304 30.3323 140.304 29.8874 140.019 29.3616L133.834 15.9743C133.386 15.1249 132.979 14.1947 132.694 13.8711C132.491 13.5475 132.165 13.3049 131.758 13.1026C130.944 12.7386 130.822 12.6173 130.822 12.1724C130.822 11.3635 131.392 10.9591 132.491 10.9591C132.776 10.9591 133.06 10.959 133.427 10.9995C134.363 11.0399 135.258 11.0804 136.112 11.0804C136.926 11.0804 138.025 11.0399 139.408 10.9591C139.53 10.9186 139.734 10.9186 140.019 10.9186C141.158 10.9186 141.524 11.1208 141.524 11.8893C141.524 12.3342 141.28 12.6577 140.792 12.9409C139.775 13.5475 139.571 13.6689 139.571 14.4373C139.571 14.8822 139.734 15.4485 140.019 16.0551L143.03 23.1735C143.315 23.8611 143.478 24.306 143.6 24.306C143.722 24.306 143.844 23.8611 144.129 23.214Z" fill="#404040"/>
<path d="M129.504 12.9003L129.382 15.4079V24.1037C129.382 27.137 129.626 27.6628 131.457 28.1077C132.23 28.31 132.474 28.5931 132.474 29.2402C132.474 29.5233 132.352 29.7255 132.149 29.8873C131.823 30.1704 131.62 30.2109 130.48 30.3322C129.382 30.4536 127.754 30.858 126.778 31.3433C125.801 31.8287 125.72 31.8691 125.231 31.8691C124.295 31.8691 124.092 31.5051 124.092 30.0491C124.092 29.6851 124.133 29.1189 124.173 28.5931C124.173 28.2695 124.214 27.9055 124.214 27.6224C124.214 27.5011 124.173 27.4606 124.133 27.4606L123.563 28.2695C122.464 30.0087 119.331 31.5456 117.052 31.5456C113.105 31.5456 110.908 29.2402 110.908 25.0339V17.0662C110.908 15.8933 110.867 15.6506 110.501 15.2057C110.216 14.7608 109.972 14.7204 109.036 14.5181C108.222 14.3564 107.815 13.9519 107.815 13.3048C107.815 12.9408 108.019 12.5363 108.222 12.3745C108.507 12.1723 108.792 12.1319 109.931 12.0105C111.722 11.8892 112.657 11.6465 114.082 10.9994C114.692 10.7163 115.14 10.5545 115.424 10.5545C116.157 10.5545 116.523 10.959 116.523 11.7274L116.482 15.0035V22.4858C116.482 25.9237 117.337 27.1775 119.656 27.1775C122.22 27.1775 123.848 25.1552 123.848 22.0814V16.864C123.848 15.0439 123.563 14.599 122.139 14.3159C121.203 14.1137 120.918 13.8306 120.918 13.1834C120.918 12.9003 120.999 12.6577 121.121 12.5363C121.325 12.1723 121.65 12.051 122.912 11.9296C124.499 11.7679 126.289 11.4039 127.144 10.959C127.795 10.6354 127.958 10.5545 128.242 10.5545C129.26 10.5545 129.504 10.9185 129.504 12.2532V12.9003Z" fill="#404040"/>
<path d="M91.4902 12.9816L91.5309 13.7905L92.2227 13.103C94.0945 11.2425 96.2918 10.3122 98.8554 10.3122C103.698 10.3122 107.116 14.1545 107.116 19.6551C107.116 26.2477 102.436 31.4246 96.4139 31.4246C93.8096 31.4246 91.0019 30.4944 89.6998 29.3215C89.4149 29.0384 89.2521 28.917 89.0894 28.917C89.0487 28.917 88.9266 29.0788 88.7232 29.4428C87.95 30.8584 87.0141 31.9504 86.5258 31.9504C85.7933 31.9504 85.4271 31.6269 85.4271 30.9797C85.4271 30.818 85.4678 30.6966 85.4678 30.4944L85.6713 28.9979L86.0375 26.005V7.19796C86.0375 6.26772 85.7526 5.1757 85.4271 4.7308C85.1423 4.40724 84.9795 4.32635 83.8401 4.00279C83.2297 3.84101 82.9042 3.51744 82.9042 3.0321C82.9042 2.74898 82.9856 2.54676 83.189 2.38498C83.3518 2.26364 83.4739 2.2232 83.5553 2.18275C84.0029 2.02097 84.9388 1.81875 85.9561 1.65696C87.2176 1.37385 87.9093 1.25251 88.1942 1.21207L89.7404 0.767169C89.8625 0.726724 90.066 0.686279 90.3508 0.686279C91.2054 0.686279 91.4902 0.969395 91.4902 2.46587V12.9816ZM92.0599 26.5712C92.7517 27.9059 94.2979 28.7553 96.2512 28.7553C99.7914 28.7553 101.907 26.1263 101.907 21.7582C101.907 17.5519 99.6286 14.8017 96.2105 14.8017C94.2979 14.8017 92.5889 15.8128 91.9378 17.2284C91.5716 18.0373 91.4902 18.4417 91.4902 20.0191V21.556C91.4902 22.9716 91.4902 23.8614 91.5309 24.1445C91.5309 25.0747 91.6937 25.8836 92.0599 26.5712Z" fill="#404040"/>
<path d="M76.295 30.4937L75.1963 28.7545L73.9756 29.7657C72.8362 30.6959 70.3947 31.4644 68.238 31.4644C64.7385 31.4644 62.1749 29.159 62.1749 26.0447C62.1749 23.3349 63.4363 21.7575 66.3662 20.8273L70.354 19.6139C72.1851 19.0073 73.3245 18.7241 73.8128 18.6028C74.5859 18.4815 74.6266 18.441 74.6266 17.7534V17.4299L74.5045 15.6503C74.3825 13.992 73.3245 12.9405 71.6968 12.9405C69.947 12.9405 68.1973 14.5583 68.1973 16.2974C68.1973 17.0659 68.1566 17.4703 68.1566 17.5917C68.0345 18.1175 67.6276 18.4006 66.9359 18.4006C64.8199 18.4006 62.948 17.2277 62.948 15.893C62.948 12.9809 67.5869 10.3115 72.7548 10.3115C78.4517 10.3115 80.2421 11.8889 80.2421 17.0659V25.5189C80.2421 27.0154 80.4863 27.5816 81.2594 27.5816C81.4222 27.5816 81.5443 27.5412 81.5849 27.5007L82.2767 27.1772C82.3174 27.1367 82.3988 27.1367 82.5209 27.1367C82.9685 27.1367 83.3347 27.6625 83.3347 28.3501C83.3347 28.7141 83.1719 29.0781 82.8871 29.3612C81.707 30.5341 79.9166 31.3835 78.4924 31.3835C77.3937 31.3835 76.6612 31.1004 76.295 30.4937ZM74.6266 23.0518C74.6266 22.6878 74.6673 22.0002 74.5452 21.1508L73.0803 21.6766C70.9644 22.4046 70.5981 22.4451 69.9064 22.89C69.4181 23.1731 69.0111 23.4562 68.6856 23.9011C68.1973 24.5078 67.9531 25.1549 67.9531 25.8425C67.9531 27.339 68.9705 28.2288 70.7609 28.2288C71.9003 28.2288 73.121 27.5816 73.7721 26.6514C74.3825 25.8425 74.6266 24.8314 74.6266 23.0518Z" fill="#404040"/>
<path d="M58.5723 14.3571H54.8694C54.5031 14.3571 54.3404 14.3571 54.3404 14.3975C54.2997 14.3975 54.259 14.6807 54.259 15.0042V23.9022C54.259 25.3986 54.2997 25.884 54.8694 26.5311C55.317 27.1782 56.0087 27.5018 56.8633 27.5018C57.3923 27.5018 57.9213 27.3805 58.4502 27.0973L59.6303 26.4502C59.7117 26.3693 59.8338 26.3289 60.0372 26.3289C60.6883 26.3289 61.258 27.0165 61.258 27.7849C61.258 28.1489 60.9325 28.6343 60.2814 29.2409C58.5316 30.7374 56.497 31.5059 54.1776 31.5059C50.556 31.5059 48.7249 29.2814 48.7249 24.792V15.4491C48.7249 15.0042 48.7249 14.802 48.6842 14.7616H46.5682C45.5916 14.7616 45.2254 14.3975 45.2254 13.5886C45.2254 12.5775 45.6323 12.0922 47.3007 11.1215C48.7249 10.353 48.8876 10.1508 49.5387 9.50368C50.3119 8.81611 50.5153 8.41166 51.1257 7.31963C51.9802 5.82316 52.3465 5.4996 53.1603 5.4996C53.7707 5.4996 54.1369 5.74227 54.259 6.22762L54.2183 7.40053L54.1776 10.1508V10.8384C54.2183 10.8788 54.3811 10.9193 54.5845 10.9193L54.7473 10.8788L58.3282 10.6361H58.9792C59.6303 10.6361 59.9558 11.081 59.9558 12.0113C59.9558 12.4966 59.8338 12.9011 59.6303 13.346C59.3862 14.0335 59.0199 14.3571 58.5723 14.3571Z" fill="#404040"/>
<path d="M41.8319 19.4119L33.2866 21.596C32.839 21.7173 32.5948 21.7982 32.5948 21.7982C32.5542 21.8386 32.5135 21.9195 32.5135 22.0004C32.5135 22.5262 32.7576 23.416 33.2052 24.2249C34.3853 26.4898 36.4199 27.8245 38.6579 27.8245C40.0822 27.8245 42.0761 27.2178 43.012 26.4898C43.663 26.0045 43.9886 25.6809 44.1107 25.6405C44.3141 25.5596 44.5176 25.5191 44.721 25.5191C45.25 25.5191 45.6976 25.9236 45.6976 26.4089C45.6976 26.8538 45.4942 27.2987 45.0466 27.8245C43.2968 30.0086 39.838 31.505 36.542 31.505C30.8451 31.505 26.6538 27.137 26.6538 21.1511C26.6538 18.4412 27.5084 16.055 29.2174 13.9923C31.3334 11.4038 33.8563 10.2713 37.4372 10.2713C39.3497 10.2713 41.0588 10.6758 42.1574 11.3229C43.8258 12.334 45.25 14.8012 45.25 16.6212C45.25 17.147 45.128 17.5919 44.9245 17.9559C44.4769 18.603 44.1107 18.8861 41.8319 19.4119ZM32.4321 19.1288C32.6355 19.1288 33.2459 19.0075 34.3446 18.7244C35.5247 18.4008 35.8502 18.4008 38.1696 17.511C39.7566 16.9043 40.3263 16.419 40.3263 15.6101C40.3263 15.2056 40.1635 14.7203 39.7973 14.1945C39.1462 13.2643 38.1696 12.7789 37.193 12.7789C34.6701 12.7789 32.1879 15.8123 32.1879 18.8861C32.1879 19.0479 32.2693 19.1288 32.4321 19.1288Z" fill="#404040"/>
<path fill-rule="evenodd" clip-rule="evenodd" d="M25.0288 19.6551C25.0288 26.1312 20.5225 31.2392 14.6492 31.4177L14.4108 31.3696L14.2359 31.3079C13.767 31.0977 13.4332 30.6262 13.4332 30.0782C13.4332 29.7964 13.5206 29.5348 13.6716 29.3187C13.7988 29.125 13.9816 28.9677 14.1962 28.8649C14.3392 28.7985 14.4903 28.7548 14.6492 28.7387C17.8998 28.5076 19.9305 25.8641 19.9305 21.6991C19.9305 17.4927 17.5421 14.8017 14.1247 14.8017C13.5286 14.8017 12.9564 14.8997 12.4239 15.0775C11.7801 15.2957 11.192 15.7525 10.7151 16.2035C10.3972 16.5052 10.127 16.8043 9.92036 17.0274L9.71372 17.2328L7.42868 19.5158C6.1485 20.7949 3.95168 19.8937 3.95168 18.0896V7.19796C3.95168 6.26774 3.66557 5.1757 3.33971 4.7308C3.06155 4.40723 2.89465 4.32632 1.75813 4.00282C1.14617 3.841 0.820312 3.51743 0.820312 3.03211C0.820312 2.74896 0.899789 2.54679 1.10643 2.38497C1.26538 2.26364 1.39254 2.22322 1.47202 2.18273C1.91709 2.02098 2.85491 1.81874 3.87221 1.65699C5.13588 1.37384 5.82733 1.25251 6.11344 1.21209L7.65528 0.767187C7.78245 0.726702 7.98114 0.686279 8.26725 0.686279C8.64079 0.686279 8.90306 0.740156 9.08586 0.924991C9.31634 1.16401 9.40376 1.62206 9.40376 2.46588V12.9816L9.4435 13.7906L10.1349 13.103C12.0106 11.2425 14.2041 10.3123 16.7712 10.3123C21.6113 10.3123 25.0288 14.1545 25.0288 19.6551Z" fill="#404040"/>
<path d="M16.1426 30.0782C16.1426 30.8218 15.5361 31.4247 14.7879 31.4247C14.7411 31.4247 14.6948 31.4223 14.6492 31.4177C13.9662 31.3487 13.4332 30.7753 13.4332 30.0782C13.4332 29.3811 13.9662 28.8078 14.6492 28.7387C14.6948 28.7341 14.7411 28.7318 14.7879 28.7318C15.5361 28.7318 16.1426 29.3346 16.1426 30.0782Z" fill="#404040"/>
</svg>
