<svg width="16" height="17" viewBox="0 0 16 17" fill="none" xmlns="http://www.w3.org/2000/svg">
<path d="M2.66683 12.5C2.57881 12.502 2.49131 12.486 2.40969 12.453C2.32807 12.42 2.25405 12.3706 2.19217 12.308C2.12954 12.2461 2.0802 12.1721 2.04719 12.0905C2.01417 12.0089 1.99817 11.9214 2.00017 11.8333C2.00017 11.6449 2.06417 11.4867 2.19217 11.3587C2.25405 11.296 2.32807 11.2467 2.40969 11.2137C2.49131 11.1807 2.57881 11.1647 2.66683 11.1667H10.0002C10.1891 11.1667 10.3475 11.2307 10.4755 11.3587C10.538 11.4206 10.5872 11.4947 10.6201 11.5763C10.653 11.6579 10.6689 11.7454 10.6668 11.8333C10.6668 12.0218 10.6031 12.18 10.4755 12.308C10.4135 12.3707 10.3394 12.4201 10.2577 12.4531C10.1759 12.4861 10.0883 12.5021 10.0002 12.5H2.66683Z" fill="#080808"/>
<path opacity="0.3" d="M11.6 8.50001L13.5333 10.4333C13.594 10.4946 13.6416 10.5675 13.6731 10.6478C13.7047 10.728 13.7195 10.8138 13.7167 10.9C13.7195 10.9862 13.7047 11.072 13.6731 11.1523C13.6416 11.2325 13.594 11.3055 13.5333 11.3667C13.4721 11.4274 13.3992 11.475 13.3189 11.5065C13.2387 11.538 13.1528 11.5528 13.0667 11.55C12.9805 11.5528 12.8947 11.538 12.8144 11.5065C12.7342 11.475 12.6612 11.4274 12.6 11.3667L10.2 8.96668C10.1366 8.90665 10.0861 8.83428 10.0517 8.75403C10.0174 8.67377 9.99974 8.58733 10 8.50001C10 8.32224 10.0667 8.16668 10.2 8.03335L12.6 5.63335C12.6612 5.57263 12.7342 5.52506 12.8144 5.49353C12.8947 5.46201 12.9805 5.4472 13.0667 5.45001C13.2556 5.45001 13.4111 5.51112 13.5333 5.63335C13.594 5.69456 13.6416 5.76752 13.6731 5.84777C13.7047 5.92801 13.7195 6.01385 13.7167 6.10001C13.7195 6.18618 13.7047 6.27202 13.6731 6.35226C13.6416 6.43251 13.594 6.50547 13.5333 6.56668L11.6 8.50001Z" fill="#080808"/>
<path d="M2.66685 5.83335C2.57887 5.83543 2.4914 5.81953 2.40978 5.78664C2.32816 5.75374 2.25412 5.70452 2.19218 5.64201C2.12947 5.58005 2.08008 5.50593 2.04707 5.42419C2.01405 5.34244 1.99809 5.25481 2.00018 5.16668C2.00018 4.97779 2.06418 4.81935 2.19218 4.69135C2.25412 4.62884 2.32816 4.57963 2.40978 4.54673C2.4914 4.51383 2.57887 4.49793 2.66685 4.50001H10.0002C10.0883 4.49784 10.1759 4.51369 10.2576 4.54659C10.3393 4.57949 10.4135 4.62875 10.4755 4.69135C10.5381 4.75336 10.5874 4.82752 10.6203 4.90925C10.6532 4.99099 10.669 5.07859 10.6668 5.16668C10.669 5.25477 10.6532 5.34237 10.6203 5.42411C10.5874 5.50585 10.5381 5.58 10.4755 5.64201C10.4135 5.70461 10.3393 5.75387 10.2576 5.78677C10.1759 5.81967 10.0883 5.83552 10.0002 5.83335H2.66685Z" fill="#080808"/>
<path opacity="0.3" d="M2.66683 9.16666C2.57881 9.16866 2.49131 9.15266 2.40969 9.11964C2.32807 9.08663 2.25405 9.03729 2.19217 8.97466C2.12954 8.91278 2.0802 8.83876 2.04719 8.75714C2.01417 8.67552 1.99817 8.58802 2.00017 8.49999C2.00017 8.3111 2.06417 8.15266 2.19217 8.02466C2.2541 7.96215 2.32815 7.91294 2.40977 7.88004C2.49138 7.84714 2.57886 7.83124 2.66683 7.83333H8.00017C8.08825 7.83115 8.17585 7.847 8.25759 7.87991C8.33933 7.91281 8.41348 7.96207 8.4755 8.02466C8.53809 8.08668 8.58735 8.16083 8.62025 8.24257C8.65316 8.32431 8.66901 8.41191 8.66683 8.49999C8.66683 8.68844 8.60306 8.84666 8.4755 8.97466C8.41354 9.03737 8.33941 9.08676 8.25767 9.11977C8.17593 9.15279 8.0883 9.16875 8.00017 9.16666H2.66683Z" fill="#080808"/>
</svg>
