<svg width="16" height="17" viewBox="0 0 16 17" fill="none" xmlns="http://www.w3.org/2000/svg">
<path d="M7.9974 3.96664C8.4574 3.96664 8.83073 4.33998 8.83073 4.79998V7.96664H11.9974C12.2184 7.96664 12.4304 8.05444 12.5867 8.21072C12.7429 8.367 12.8307 8.57896 12.8307 8.79998C12.8307 9.02099 12.7429 9.23295 12.5867 9.38923C12.4304 9.54551 12.2184 9.63331 11.9974 9.63331H8.83073V12.8C8.83073 13.021 8.74293 13.233 8.58665 13.3892C8.43037 13.5455 8.21841 13.6333 7.9974 13.6333C7.77638 13.6333 7.56442 13.5455 7.40814 13.3892C7.25186 13.233 7.16406 13.021 7.16406 12.8V9.63331H3.9974C3.77638 9.63331 3.56442 9.54551 3.40814 9.38923C3.25186 9.23295 3.16406 9.02099 3.16406 8.79998C3.16406 8.57896 3.25186 8.367 3.40814 8.21072C3.56442 8.05444 3.77638 7.96664 3.9974 7.96664H7.16406V4.79998C7.16406 4.33998 7.5374 3.96664 7.9974 3.96664Z" fill="#888A8C"/>
</svg>
